# xmcd
#
# Track frame offsets: 
#        150
#        17162
#        39940
#        57340
#        78720
#        93287
#        113335
#        132302
#        153367
#
# Disc length: 2426 seconds
#
# Revision: 2
# Processed by: cddbd v1.5.2PL0 Copyright (c) Steve Scherf et al.
# Submitted via: ExactAudioCopy v0.95b4
#
DISCID=65097809
DTITLE=Depeche Mode - Some Great Reward
DYEAR=1984
DGENRE=Alternative
TTITLE0=Something To Do
TTITLE1=Lie To Me
TTITLE2=People Are People
TTITLE3=It Doesn't Matter
TTITLE4=Stories Of Old
TTITLE5=Somebody
TTITLE6=Master And Servant
TTITLE7=If You Want
TTITLE8=Blasphemous Rumours
EXTD=
EXTT0=
EXTT1=
EXTT2=
EXTT3=
EXTT4=
EXTT5=
EXTT6=
EXTT7=
EXTT8=
PLAYORDER=
